<svg xmlns="http://www.w3.org/2000/svg" x="0px" y="0px" width="100" height="100" viewBox="0,0,240.14063,256">
<g transform="translate(72.04219,76.8) scale(0.4,0.4)"><g fill="#09e3c3" fill-rule="nonzero" stroke="none" stroke-width="1" stroke-linecap="butt" stroke-linejoin="miter" stroke-miterlimit="10" stroke-dasharray="" stroke-dashoffset="0" font-family="none" font-weight="none" font-size="none" text-anchor="none" style="mix-blend-mode: normal"><g transform="translate(-120.09304,2.43686) scale(11.34249,11.34249)"><path d="M10.69336,-0.02539l-0.69141,0.50195c-0.04345,0.03153 -0.08097,0.0686 -0.12305,0.10156c-0.28156,0.22057 -0.53216,0.47164 -0.74805,0.74805l-8.54492,8.54492c-0.7724,0.77263 -0.7724,2.05549 0,2.82813l9.89648,9.89648l0.69141,-0.50195c0.04344,-0.03154 0.08099,-0.06859 0.12305,-0.10156c0.28145,-0.22061 0.53221,-0.47161 0.74805,-0.74805l8.54492,-8.54492c0.7724,-0.77263 0.7724,-2.05549 0,-2.82813zM10.63281,2.74219l8.54297,8.54297l-6.33398,6.33398c-0.16945,-0.80098 -0.4745,-1.56606 -0.93555,-2.24023l4.08984,-4.08984l-4.61328,-4.66211c-0.67814,-0.69743 -1.08727,-1.60794 -1.17578,-2.57617c-0.0069,-0.48144 0.16836,-0.9172 0.42578,-1.30859zM8.33398,4.95117c0.16884,0.80073 0.47501,1.56219 0.93555,2.23633c0.00032,0.00047 -0.00032,0.00148 0,0.00195l-4.09375,4.0918l4.61328,4.66211c0.67869,0.69633 1.08978,1.60657 1.17969,2.57422c0.0072,0.48223 -0.16799,0.91852 -0.42578,1.31055l-8.54297,-8.54297zM10.60352,8.68164l2.57226,2.59961l-2.60742,2.60742l-2.57227,-2.59961z"></path></g></g><g fill="#08b298" fill-rule="nonzero" stroke="none" stroke-width="1" stroke-linecap="butt" stroke-linejoin="miter" stroke-miterlimit="10" stroke-dasharray="" stroke-dashoffset="0" font-family="none" font-weight="none" font-size="none" text-anchor="none" style="mix-blend-mode: normal"><g><path d="M162.83276,165.94488h-43.77v-4.89l6.32,-1.08v-44.47l-6.32,-1.09v-4.92h43.35v13.57h-6.56l-0.62,-7.56h-22.21v18.26h21.59v6.01h-21.59v20.2h22.68l0.62,-7.56h6.51zM198.54276,165.94488l-0.62,-5c-1.37333,1.91333 -3.04667,3.36 -5.02,4.34c-1.98,0.98 -4.27333,1.47 -6.88,1.47v0c-5.12,0 -9.12,-1.85333 -12,-5.56c-2.88667,-3.70667 -4.33,-8.58667 -4.33,-14.64v0v-0.81c0,-6.74667 1.44333,-12.18667 4.33,-16.32c2.88,-4.14 6.90333,-6.21 12.07,-6.21v0c2.48,0 4.67,0.46 6.57,1.38c1.9,0.92 3.52333,2.24333 4.87,3.97v0v-17.09l-6.32,-1.09v-4.92h6.32h7.64v54.51l6.32,1.08v4.89zM177.33276,145.74488v0.81c0,4.21333 0.86667,7.6 2.6,10.16c1.73333,2.56 4.40667,3.84 8.02,3.84v0c2.28,0 4.19333,-0.51667 5.74,-1.55c1.55333,-1.03333 2.83333,-2.49333 3.84,-4.38v0v-19.46c-0.98,-1.76 -2.26,-3.15667 -3.84,-4.19c-1.57333,-1.03333 -3.46,-1.55 -5.66,-1.55v0c-3.64667,0 -6.34,1.51 -8.08,4.53c-1.74667,3.02667 -2.62,6.95667 -2.62,11.79zM247.81276,165.94488l-0.5,-6.21c-1.32,2.25333 -3.02,3.98667 -5.1,5.2c-2.08,1.21333 -4.47667,1.82 -7.19,1.82v0c-4.54667,0 -8.1,-1.46 -10.66,-4.38c-2.56,-2.92 -3.84,-7.47 -3.84,-13.65v0v-18.72l-4.81,-1.09v-4.92h4.81h7.64v24.81c0,4.47333 0.65667,7.55 1.97,9.23c1.32,1.68 3.37667,2.52 6.17,2.52v0c2.71333,0 4.95333,-0.55 6.72,-1.65c1.77333,-1.1 3.11333,-2.65667 4.02,-4.67v0v-24.23l-5.62,-1.09v-4.92h5.62h7.63v35.98l4.81,1.08v4.89zM284.37276,160.78488v0c2.53333,0 4.76333,-0.78 6.69,-2.34c1.92667,-1.56667 2.89,-3.48667 2.89,-5.76v0h6.86l0.08,0.23c0.12667,3.62 -1.48333,6.83333 -4.83,9.64c-3.34667,2.8 -7.24333,4.2 -11.69,4.2v0c-6.1,0 -10.76,-1.99 -13.98,-5.97c-3.21333,-3.98 -4.82,-8.98 -4.82,-15v0v-1.63c0,-5.97333 1.61333,-10.95667 4.84,-14.95c3.23333,-3.99333 7.88667,-5.99 13.96,-5.99v0c3.36,0 6.37667,0.55667 9.05,1.67c2.68,1.11333 4.89667,2.64 6.65,4.58v0l0.35,9.3h-6.09l-1.66,-6.59c-0.90667,-0.88 -2.07,-1.59 -3.49,-2.13c-1.42,-0.54667 -3.02333,-0.82 -4.81,-0.82v0c-4.00667,0 -6.87,1.44333 -8.59,4.33c-1.71333,2.88 -2.57,6.41333 -2.57,10.6v0v1.63c0,4.28667 0.85,7.86 2.55,10.72c1.70667,2.85333 4.57667,4.28 8.61,4.28zM345.70276,165.94488h-10c-0.23333,-1.14 -0.41333,-2.16333 -0.54,-3.07c-0.13333,-0.9 -0.22333,-1.80333 -0.27,-2.71v0c-1.47333,1.88667 -3.31667,3.45667 -5.53,4.71c-2.20667,1.25333 -4.56333,1.88 -7.07,1.88v0c-4.37333,0 -7.69667,-1.06667 -9.97,-3.2c-2.27333,-2.13333 -3.41,-5.13667 -3.41,-9.01v0c0,-3.98 1.61,-7.05 4.83,-9.21c3.21333,-2.16 7.62667,-3.24 13.24,-3.24v0h7.87v-4.88c0,-2.45333 -0.77667,-4.39667 -2.33,-5.83c-1.55333,-1.44 -3.71,-2.16 -6.47,-2.16v0c-1.91333,0 -3.6,0.24667 -5.06,0.74c-1.46,0.49333 -2.64333,1.16667 -3.55,2.02v0l-0.81,4.42h-5.9v-8.15c1.91333,-1.52 4.22667,-2.74 6.94,-3.66c2.71333,-0.92 5.66,-1.38 8.84,-1.38v0c4.75333,0 8.60333,1.21667 11.55,3.65c2.94667,2.42667 4.42,5.90333 4.42,10.43v0v20.2c0,0.54 0.00667,1.07 0.02,1.59c0.01333,0.51333 0.04667,1.03 0.1,1.55v0l3.1,0.42zM323.41276,160.35488v0c2.53333,0 4.84667,-0.60667 6.94,-1.82c2.09333,-1.21333 3.59333,-2.67333 4.5,-4.38v0v-6.9h-8.14c-3.13333,0 -5.61,0.72333 -7.43,2.17c-1.82,1.44667 -2.73,3.20333 -2.73,5.27v0c0,1.84 0.56667,3.24333 1.7,4.21c1.14,0.96667 2.86,1.45 5.16,1.45zM357.76276,113.87488h7.64v10.12h7.94v5.66h-7.94v25.47c0,1.96667 0.40667,3.35 1.22,4.15c0.81333,0.8 1.89,1.2 3.23,1.2v0c0.67333,0 1.43,-0.05667 2.27,-0.17c0.84,-0.12 1.54667,-0.24333 2.12,-0.37v0l1.04,5.23c-0.72,0.46667 -1.78,0.85 -3.18,1.15c-1.39333,0.29333 -2.78667,0.44 -4.18,0.44v0c-3.10667,0 -5.57667,-0.93667 -7.41,-2.81c-1.83333,-1.87333 -2.75,-4.81333 -2.75,-8.82v0v-25.47h-6.63v-5.66h6.63zM400.29276,166.75488v0c-5.84,0 -10.48667,-1.94333 -13.94,-5.83c-3.45333,-3.89333 -5.18,-8.94 -5.18,-15.14v0v-1.71c0,-5.96667 1.78,-10.93333 5.34,-14.9c3.55333,-3.97333 7.75667,-5.96 12.61,-5.96v0c5.64,0 9.91333,1.70667 12.82,5.12c2.90667,3.41333 4.36,7.96333 4.36,13.65v0v4.77h-27.22l-0.11,0.19c0.07333,4.03333 1.09333,7.35 3.06,9.95c1.96667,2.59333 4.72,3.89 8.26,3.89v0c2.58,0 4.84667,-0.36667 6.8,-1.1c1.95333,-0.74 3.64,-1.75667 5.06,-3.05v0l2.99,4.97c-1.5,1.44667 -3.48667,2.66667 -5.96,3.66c-2.46667,0.99333 -5.43,1.49 -8.89,1.49zM399.12276,129.22488v0c-2.55333,0 -4.73667,1.08 -6.55,3.24c-1.80667,2.16 -2.91667,4.86667 -3.33,8.12v0l0.08,0.2h19.34v-1.01c0,-3 -0.8,-5.50667 -2.4,-7.52c-1.60667,-2.02 -3.98667,-3.03 -7.14,-3.03z"></path></g></g></g>
</svg>